<svg width="14" height="14" viewBox="0 0 14 14" fill="none" xmlns="http://www.w3.org/2000/svg">

<path fill-rule="evenodd" clip-rule="evenodd" d="M6.7388 0.644836C6.90302 0.562724 7.09632 0.562724 7.26055 0.644836L13.0939 3.5615C13.2915 3.66031 13.4163 3.8623 13.4163 4.08325C13.4163 4.3042 13.2915 4.50619 13.0939 4.605L7.26055 7.52167C7.09632 7.60378 6.90302 7.60378 6.7388 7.52167L0.905467 4.605C0.707843 4.50619 0.583008 4.3042 0.583008 4.08325C0.583008 3.8623 0.707843 3.66031 0.905467 3.5615L6.7388 0.644836ZM2.47071 4.08325L6.99967 6.34773L11.5286 4.08325L6.99967 1.81877L2.47071 4.08325Z" fill="white"/>
<path fill-rule="evenodd" clip-rule="evenodd" d="M0.644903 9.65584C0.78898 9.36768 1.13937 9.25089 1.42753 9.39496L6.99999 12.1812L12.5724 9.39496C12.8606 9.25089 13.211 9.36768 13.3551 9.65584C13.4991 9.94399 13.3823 10.2944 13.0942 10.4385L7.26086 13.3551C7.09664 13.4372 6.90334 13.4372 6.73911 13.3551L0.905777 10.4385C0.617623 10.2944 0.500826 9.94399 0.644903 9.65584Z" fill="white"/>
<path fill-rule="evenodd" clip-rule="evenodd" d="M0.644903 6.73909C0.78898 6.45094 1.13937 6.33414 1.42753 6.47822L6.99999 9.26445L12.5724 6.47822C12.8606 6.33414 13.211 6.45094 13.3551 6.73909C13.4991 7.02724 13.3823 7.37764 13.0942 7.52171L7.26086 10.4384C7.09664 10.5205 6.90334 10.5205 6.73911 10.4384L0.905777 7.52171C0.617623 7.37764 0.500826 7.02724 0.644903 6.73909Z" fill="white"/>

<defs>
<clipPath id="clip0_0_487">
<rect width="14" height="14" fill="white"/>
</clipPath>
</defs>
</svg>
