<svg width="16" height="16" viewBox="0 0 16 16" fill="none" xmlns="http://www.w3.org/2000/svg">

<path fill-rule="evenodd" clip-rule="evenodd" d="M8.00035 0.666748C8.25409 0.666748 8.48584 0.810796 8.59815 1.03833L10.5032 4.89773L14.7634 5.52042C15.0145 5.55712 15.2229 5.73312 15.3012 5.97446C15.3794 6.2158 15.3139 6.48063 15.1322 6.65765L12.05 9.65966L12.7774 13.9007C12.8203 14.1508 12.7175 14.4036 12.5122 14.5528C12.3068 14.7019 12.0347 14.7216 11.81 14.6035L8.00035 12.6L4.19065 14.6035C3.96604 14.7216 3.69384 14.7019 3.48852 14.5528C3.2832 14.4036 3.18037 14.1508 3.22327 13.9007L3.95066 9.65966L0.868523 6.65765C0.686778 6.48063 0.621262 6.2158 0.699514 5.97446C0.777766 5.73312 0.986219 5.55712 1.23726 5.52042L5.4975 4.89773L7.40254 1.03833C7.51485 0.810796 7.7466 0.666748 8.00035 0.666748ZM8.00035 2.83958L6.53815 5.80183C6.44112 5.9984 6.25367 6.1347 6.03676 6.16641L2.76595 6.64448L5.13217 8.94918C5.28942 9.10234 5.36119 9.32309 5.32408 9.53944L4.7658 12.7945L7.69004 11.2567C7.8843 11.1545 8.11639 11.1545 8.31065 11.2567L11.2349 12.7945L10.6766 9.53944C10.6395 9.32309 10.7113 9.10234 10.8685 8.94918L13.2347 6.64448L9.96393 6.16641C9.74702 6.1347 9.55957 5.9984 9.46254 5.80183L8.00035 2.83958Z" fill="white"/>

</svg>
