<svg width="21" height="21" viewBox="0 0 21 21" fill="none" xmlns="http://www.w3.org/2000/svg">
<path fill-rule="evenodd" clip-rule="evenodd" d="M10.9869 1.75293H7.89209L8.07333 2.29667L9.48255 6.52421H12.5774L11.3358 2.79961L10.9869 1.75293ZM13.662 8.11463C13.6744 8.11492 13.6867 8.11492 13.699 8.11463H19.2471V14.8739C19.2471 17.2895 17.289 19.2476 14.8735 19.2476H6.12611C3.7106 19.2476 1.75244 17.2895 1.75244 14.8739V8.11463H8.89079C8.90306 8.11492 8.9154 8.11492 8.92773 8.11463H13.662ZM14.2538 6.52421L12.8446 2.29667L12.6634 1.75293H14.8735C17.289 1.75293 19.2471 3.71109 19.2471 6.1266V6.52421H14.2538ZM6.12611 1.75293H6.21563L6.56453 2.79961L7.80606 6.52421H1.75244V6.1266C1.75244 3.71109 3.7106 1.75293 6.12611 1.75293ZM8.96781 9.05362C8.72486 8.88356 8.40751 8.86279 8.14451 8.9997C7.88151 9.13664 7.71654 9.40852 7.71654 9.70506V15.2715C7.71654 15.5681 7.88151 15.84 8.14451 15.9769C8.40751 16.1138 8.72486 16.0931 8.96781 15.923L12.9439 13.1397C13.1564 12.991 13.283 12.7478 13.283 12.4883C13.283 12.2288 13.1564 11.9857 12.9439 11.8369L8.96781 9.05362Z" fill="white"/>
</svg>
