<svg width="25" height="25" viewBox="0 0 25 25" fill="none" xmlns="http://www.w3.org/2000/svg">
<path d="M19.9446 11.3002V8.36337C18.5693 8.36337 17.5197 7.99626 16.8423 7.28274C16.1472 6.46842 15.7577 5.43717 15.741 4.36661V4.15462L12.9645 4.0874V16.0156C12.8693 16.5361 12.6166 17.0148 12.2407 17.3871C11.8648 17.7594 11.3837 18.0074 10.8624 18.0976C10.341 18.1878 9.80458 18.1159 9.32541 17.8916C8.84624 17.6673 8.44743 17.3013 8.18283 16.8432C7.91822 16.385 7.80056 15.8567 7.84572 15.3296C7.89089 14.8024 8.09671 14.3018 8.4354 13.8953C8.77408 13.4889 9.22933 13.1961 9.73967 13.0566C10.25 12.917 10.7909 12.9374 11.2893 13.115V10.2713C10.9987 10.2237 10.7048 10.1994 10.4103 10.1989C9.35087 10.1989 8.31523 10.513 7.43434 11.1016C6.55345 11.6902 5.86689 12.5268 5.46146 13.5056C5.05603 14.4844 4.94995 15.5614 5.15664 16.6005C5.36332 17.6396 5.87349 18.594 6.62262 19.3431C7.37175 20.0923 8.32621 20.6024 9.36528 20.8091C10.4044 21.0158 11.4814 20.9097 12.4602 20.5043C13.439 20.0989 14.2756 19.4123 14.8641 18.5314C15.4527 17.6505 15.7669 16.6149 15.7669 15.5555C15.7663 15.336 15.7525 15.1167 15.7255 14.8988V10.1679C16.9881 10.9563 18.457 11.3505 19.9446 11.3002Z" fill="white"/>
</svg>
