<svg width="25" height="25" viewBox="0 0 25 25" fill="none" xmlns="http://www.w3.org/2000/svg">
<path fill-rule="evenodd" clip-rule="evenodd" d="M19.9409 6.1041C20.7609 6.32807 21.4053 6.98559 21.6248 7.82228C22.0215 9.33728 22.0231 12.5001 22.0231 12.5001C22.0231 12.5001 22.0231 15.6629 21.6248 17.1779C21.4053 18.0146 20.7609 18.6721 19.9409 18.896C18.4562 19.3024 12.4998 19.3024 12.4998 19.3024C12.4998 19.3024 6.54347 19.3024 5.05869 18.896C4.2387 18.6721 3.5943 18.0146 3.3748 17.1779C2.97656 15.6629 2.97656 12.5001 2.97656 12.5001C2.97656 12.5001 2.97656 9.33728 3.3748 7.82228C3.5943 6.98559 4.2387 6.32807 5.05869 6.1041C6.54347 5.69775 12.4998 5.69775 12.4998 5.69775C12.4998 5.69775 18.4562 5.69775 19.9409 6.1041ZM15.5417 12.5004L10.5935 15.4152V9.58551L15.5417 12.5004Z" fill="white"/>
</svg>
