<svg width="208" height="207" viewBox="0 0 208 207" fill="none" xmlns="http://www.w3.org/2000/svg">
    <g filter="url(#filter0_bd_587_2948)">
        <path d="M104 158.602C95.8861 158.602 88.2448 157.046 81.0762 153.935C73.9469 150.862 67.6449 146.608 62.1699 141.173C56.7344 135.698 52.4608 129.396 49.3491 122.267C46.2769 115.098 44.7407 107.457 44.7407 99.3428C44.7407 91.2288 46.2769 83.6073 49.3491 76.478C52.4608 69.3094 56.7344 63.0073 62.1699 57.5718C67.6055 52.0968 73.8879 47.8232 81.0171 44.751C88.1857 41.6393 95.827 40.0835 103.941 40.0835C112.055 40.0835 119.696 41.6393 126.865 44.751C134.033 47.8232 140.335 52.0968 145.771 57.5718C151.207 63.0073 155.48 69.3094 158.592 76.478C161.703 83.6073 163.259 91.2288 163.259 99.3428C163.259 107.457 161.703 115.098 158.592 122.267C155.48 129.396 151.207 135.698 145.771 141.173C140.335 146.608 134.033 150.862 126.865 153.935C119.736 157.046 112.114 158.602 104 158.602ZM104 150.98C111.129 150.98 117.806 149.641 124.029 146.963C130.292 144.285 135.786 140.582 140.513 135.855C145.279 131.129 148.981 125.654 151.62 119.431C154.299 113.168 155.638 106.472 155.638 99.3428C155.638 92.2135 154.299 85.5373 151.62 79.314C148.942 73.0513 145.239 67.5566 140.513 62.8301C135.786 58.0641 130.292 54.3617 124.029 51.7227C117.806 49.0443 111.11 47.7051 103.941 47.7051C96.8117 47.7051 90.1157 49.0443 83.853 51.7227C77.6297 54.3617 72.1548 58.0641 67.4282 62.8301C62.741 67.5566 59.0583 73.0513 56.3799 79.314C53.7409 85.5373 52.4214 92.2135 52.4214 99.3428C52.4214 106.472 53.7409 113.168 56.3799 119.431C59.0583 125.654 62.7607 131.129 67.4873 135.855C72.2139 140.582 77.6888 144.285 83.9121 146.963C90.1354 149.641 96.8314 150.98 104 150.98ZM97.5601 127.348C96.8117 127.348 96.1224 127.19 95.4922 126.875C94.9014 126.521 94.3302 125.989 93.7788 125.28L77.9448 106.314C77.2358 105.33 76.8813 104.384 76.8813 103.479C76.8813 102.494 77.2161 101.647 77.8857 100.938C78.5947 100.229 79.4219 99.8745 80.3672 99.8745C81.0368 99.8745 81.6276 100.012 82.1396 100.288C82.6911 100.524 83.2228 100.977 83.7349 101.647L97.3828 118.485L124.147 76.1826C125.014 74.8434 126.077 74.1738 127.337 74.1738C128.283 74.1738 129.13 74.4889 129.878 75.1191C130.626 75.7493 131 76.5568 131 77.5415C131 78.0142 130.882 78.5065 130.646 79.0186C130.449 79.4912 130.213 79.9442 129.937 80.3774L101.223 125.28C100.278 126.658 99.0568 127.348 97.5601 127.348Z"
              fill="#33FF00"/>
    </g>
    <defs>
        <filter id="filter0_bd_587_2948" x="0.740723" y="0.0839844" width="206.519" height="206.518"
                filterUnits="userSpaceOnUse" color-interpolation-filters="sRGB">
            <feFlood flood-opacity="0" result="BackgroundImageFix"/>
            <feGaussianBlur in="BackgroundImageFix" stdDeviation="17"/>
            <feComposite in2="SourceAlpha" operator="in" result="effect1_backgroundBlur_587_2948"/>
            <feColorMatrix in="SourceAlpha" type="matrix" values="0 0 0 0 0 0 0 0 0 0 0 0 0 0 0 0 0 0 127 0"
                           result="hardAlpha"/>
            <feOffset dy="4"/>
            <feGaussianBlur stdDeviation="22"/>
            <feComposite in2="hardAlpha" operator="out"/>
            <feColorMatrix type="matrix" values="0 0 0 0 0.184314 0 0 0 0 0.588235 0 0 0 0 0.152941 0 0 0 1 0"/>
            <feBlend mode="normal" in2="effect1_backgroundBlur_587_2948" result="effect2_dropShadow_587_2948"/>
            <feBlend mode="normal" in="SourceGraphic" in2="effect2_dropShadow_587_2948" result="shape"/>
        </filter>
    </defs>
</svg>
