<svg width="21" height="22" viewBox="0 0 21 22" fill="none" xmlns="http://www.w3.org/2000/svg">
<g filter="url(#filter0_b_0_149)">
<mask id="path-1-inside-1_0_149" fill="white">
<path d="M19.9982 16.2252C18.8627 18.1918 17.1094 19.7282 15.0106 20.5955C12.9119 21.4628 10.5855 21.6124 8.39293 21.0211C6.2004 20.4298 4.26467 19.1306 2.88668 17.3256C1.50869 15.5206 0.765645 13.3109 0.773074 11.0401C0.780504 8.76923 1.53799 6.56444 2.92776 4.76851C4.31753 2.97258 6.26172 1.68612 8.45807 1.10915C10.6544 0.532179 12.9799 0.697016 15.0729 1.57804C17.1659 2.45906 18.9091 4.0069 20.0317 5.98091L11.0757 11.0738L19.9982 16.2252Z"/>
</mask>
<path d="M19.9982 16.2252C18.8627 18.1918 17.1094 19.7282 15.0106 20.5955C12.9119 21.4628 10.5855 21.6124 8.39293 21.0211C6.2004 20.4298 4.26467 19.1306 2.88668 17.3256C1.50869 15.5206 0.765645 13.3109 0.773074 11.0401C0.780504 8.76923 1.53799 6.56444 2.92776 4.76851C4.31753 2.97258 6.26172 1.68612 8.45807 1.10915C10.6544 0.532179 12.9799 0.697016 15.0729 1.57804C17.1659 2.45906 18.9091 4.0069 20.0317 5.98091L11.0757 11.0738L19.9982 16.2252Z" fill="#FFDA00"/>
<path d="M19.9982 16.2252C18.8627 18.1918 17.1094 19.7282 15.0106 20.5955C12.9119 21.4628 10.5855 21.6124 8.39293 21.0211C6.2004 20.4298 4.26467 19.1306 2.88668 17.3256C1.50869 15.5206 0.765645 13.3109 0.773074 11.0401C0.780504 8.76923 1.53799 6.56444 2.92776 4.76851C4.31753 2.97258 6.26172 1.68612 8.45807 1.10915C10.6544 0.532179 12.9799 0.697016 15.0729 1.57804C17.1659 2.45906 18.9091 4.0069 20.0317 5.98091L11.0757 11.0738L19.9982 16.2252Z" stroke="#FFDA00" stroke-width="2" mask="url(#path-1-inside-1_0_149)"/>
</g>
<defs>
<filter id="filter0_b_0_149" x="-33.227" y="-33.229" width="87.2587" height="88.6055" filterUnits="userSpaceOnUse" color-interpolation-filters="sRGB">
<feFlood flood-opacity="0" result="BackgroundImageFix"/>
<feGaussianBlur in="BackgroundImageFix" stdDeviation="17"/>
<feComposite in2="SourceAlpha" operator="in" result="effect1_backgroundBlur_0_149"/>
<feBlend mode="normal" in="SourceGraphic" in2="effect1_backgroundBlur_0_149" result="shape"/>
</filter>
</defs>
</svg>
