<svg width="54" height="54" viewBox="0 0 54 54" fill="none" xmlns="http://www.w3.org/2000/svg">
<path d="M11.375 11.6215C11.375 9.48948 11.375 8.42348 11.8195 7.83586C12.2067 7.32394 12.7987 7.00716 13.4394 6.96889C14.175 6.92497 15.0619 7.51629 16.8358 8.69891L39.9208 24.0888C41.3866 25.066 42.1194 25.5546 42.3747 26.1704C42.5982 26.7089 42.5982 27.3139 42.3747 27.8525C42.1194 28.4682 41.3866 28.9567 39.9208 29.934L16.8358 45.3238C15.0619 46.5064 14.175 47.0978 13.4394 47.0539C12.7987 47.0157 12.2067 46.6989 11.8195 46.187C11.375 45.5993 11.375 44.5333 11.375 42.4014V11.6215Z" fill="white" stroke="white" stroke-width="2" stroke-linecap="round" stroke-linejoin="round"/>
</svg>
