<svg width="77" height="77" viewBox="0 0 77 77" fill="none" xmlns="http://www.w3.org/2000/svg">
<g filter="url(#filter0_d_587_255)">
<path d="M38.5 49C36.5193 49 34.6523 48.6209 32.899 47.8627C31.1552 47.1046 29.6152 46.0574 28.2789 44.7211C26.9426 43.3848 25.8954 41.8448 25.1373 40.101C24.3791 38.3477 24 36.4807 24 34.5C24 32.5193 24.3791 30.657 25.1373 28.9132C25.8954 27.16 26.9379 25.6152 28.2647 24.2789C29.601 22.9426 31.141 21.8954 32.8848 21.1373C34.6381 20.3791 36.5051 20 38.4858 20C40.4665 20 42.3335 20.3791 44.0868 21.1373C45.84 21.8954 47.3848 22.9426 48.7211 24.2789C50.0574 25.6152 51.1046 27.16 51.8627 28.9132C52.6209 30.657 53 32.5193 53 34.5C53 36.4807 52.6209 38.3477 51.8627 40.101C51.1046 41.8448 50.0574 43.3848 48.7211 44.7211C47.3848 46.0574 45.84 47.1046 44.0868 47.8627C42.343 48.6209 40.4807 49 38.5 49ZM31.5627 34.5142C31.5627 34.8743 31.6812 35.1681 31.9181 35.3956C32.1551 35.6136 32.4583 35.7225 32.8279 35.7225H37.2775V40.1863C37.2775 40.5559 37.3864 40.8592 37.6044 41.0961C37.8319 41.3235 38.1257 41.4373 38.4858 41.4373C38.8554 41.4373 39.1539 41.3235 39.3814 41.0961C39.6183 40.8592 39.7368 40.5559 39.7368 40.1863V35.7225H44.2005C44.5606 35.7225 44.8592 35.6136 45.0961 35.3956C45.333 35.1681 45.4515 34.8743 45.4515 34.5142C45.4515 34.1446 45.333 33.8461 45.0961 33.6186C44.8686 33.3817 44.5701 33.2632 44.2005 33.2632H39.7368V28.8137C39.7368 28.4441 39.6183 28.1409 39.3814 27.9039C39.1539 27.667 38.8554 27.5485 38.4858 27.5485C38.1257 27.5485 37.8319 27.667 37.6044 27.9039C37.3864 28.1409 37.2775 28.4441 37.2775 28.8137V33.2632H32.8279C32.4583 33.2632 32.1551 33.3817 31.9181 33.6186C31.6812 33.8461 31.5627 34.1446 31.5627 34.5142Z" fill="black"/>
</g>
<defs>
<filter id="filter0_d_587_255" x="0" y="0" width="77" height="77" filterUnits="userSpaceOnUse" color-interpolation-filters="sRGB">
<feFlood flood-opacity="0" result="BackgroundImageFix"/>
<feColorMatrix in="SourceAlpha" type="matrix" values="0 0 0 0 0 0 0 0 0 0 0 0 0 0 0 0 0 0 127 0" result="hardAlpha"/>
<feOffset dy="4"/>
<feGaussianBlur stdDeviation="12"/>
<feComposite in2="hardAlpha" operator="out"/>
<feColorMatrix type="matrix" values="0 0 0 0 1 0 0 0 0 0.756863 0 0 0 0 0.027451 0 0 0 0.31 0"/>
<feBlend mode="normal" in2="BackgroundImageFix" result="effect1_dropShadow_587_255"/>
<feBlend mode="normal" in="SourceGraphic" in2="effect1_dropShadow_587_255" result="shape"/>
</filter>
</defs>
</svg>
