<svg width="24" height="24" viewBox="0 0 24 24" fill="none" xmlns="http://www.w3.org/2000/svg">
<path d="M4.788 17.443C4.71318 17.4957 4.62531 17.5269 4.53399 17.5331C4.44267 17.5393 4.35139 17.5204 4.2701 17.4783C4.18882 17.4362 4.12065 17.3726 4.07302 17.2944C4.02539 17.2163 4.00013 17.1265 4 17.035V6.965C3.99995 6.87338 4.02507 6.78351 4.07263 6.7052C4.12018 6.62688 4.18834 6.56315 4.26966 6.52094C4.35098 6.47873 4.44233 6.45968 4.53374 6.46586C4.62515 6.47204 4.71311 6.50322 4.788 6.556L11.921 11.591C11.9864 11.6372 12.0398 11.6984 12.0766 11.7695C12.1135 11.8405 12.1327 11.9194 12.1327 11.9995C12.1327 12.0796 12.1135 12.1585 12.0766 12.2295C12.0398 12.3006 11.9864 12.3618 11.921 12.408L4.788 17.443ZM13 6.965C12.9999 6.87338 13.0251 6.78351 13.0726 6.7052C13.1202 6.62688 13.1883 6.56315 13.2697 6.52094C13.351 6.47873 13.4423 6.45968 13.5337 6.46586C13.6252 6.47204 13.7131 6.50322 13.788 6.556L20.921 11.591C20.9864 11.6372 21.0398 11.6984 21.0766 11.7695C21.1135 11.8405 21.1327 11.9194 21.1327 11.9995C21.1327 12.0796 21.1135 12.1585 21.0766 12.2295C21.0398 12.3006 20.9864 12.3618 20.921 12.408L13.788 17.443C13.7132 17.4957 13.6253 17.5269 13.534 17.5331C13.4427 17.5393 13.3514 17.5204 13.2701 17.4783C13.1888 17.4362 13.1206 17.3726 13.073 17.2944C13.0254 17.2163 13.0001 17.1265 13 17.035V6.965Z" fill="black"/>
</svg>
