<svg width="24" height="24" viewBox="0 0 24 24" fill="none" xmlns="http://www.w3.org/2000/svg">
<path d="M16.5 12C16.4998 11.1621 16.2657 10.3409 15.824 9.62894C15.3823 8.91694 14.7506 8.34239 14 7.97V10.18L16.45 12.63C16.48 12.43 16.5 12.22 16.5 12ZM19 12C19 12.94 18.8 13.82 18.46 14.64L19.97 16.15C20.6495 14.8724 21.0032 13.447 21 12C21 7.72 18.01 4.14 14 3.23V5.29C16.89 6.15 19 8.83 19 12ZM4.27 3L3 4.27L7.73 9H3V15H7L12 20V13.27L16.25 17.52C15.58 18.04 14.83 18.45 14 18.7V20.76C15.3533 20.4497 16.6163 19.8302 17.69 18.95L19.73 21L21 19.73L12 10.73L4.27 3ZM12 4L9.91 6.09L12 8.18V4Z" fill="black"/>
</svg>
