<svg width="35" height="35" viewBox="0 0 35 35" fill="none" xmlns="http://www.w3.org/2000/svg">
    <g clip-path="url(#clip0_587_2112)">
        <path d="M20.5293 22.7803H26.75C28.0449 22.7803 29.014 22.4883 29.6572 21.9043C30.3005 21.3118 30.6221 20.5586 30.6221 19.6445C30.6221 18.5951 30.2793 17.7445 29.5938 17.0928C28.9167 16.4326 27.9984 15.9925 26.8389 15.7725C26.6696 15.7555 26.5934 15.654 26.6104 15.4678C26.6442 15.1631 26.6696 14.833 26.6865 14.4775C26.7035 14.1136 26.7035 13.7624 26.6865 13.4238C26.6273 12.1882 26.293 11.054 25.6836 10.0215C25.0742 8.98893 24.2533 8.15951 23.2207 7.5332C22.1966 6.9069 21.0244 6.59375 19.7041 6.59375C18.6631 6.59375 17.749 6.76725 16.9619 7.11426C16.1748 7.4528 15.4977 7.91829 14.9307 8.51074C14.3636 9.09473 13.877 9.75488 13.4707 10.4912C13.3945 10.6266 13.2803 10.6689 13.1279 10.6182C12.2054 10.3558 11.3294 10.3262 10.5 10.5293C9.67904 10.7324 9.01042 11.1852 8.49414 11.8877C7.98633 12.5902 7.74935 13.5677 7.7832 14.8203C7.7832 15.015 7.69857 15.1123 7.5293 15.1123C6.24284 15.1123 5.22721 15.4847 4.48242 16.2295C3.74609 16.9658 3.37793 17.9307 3.37793 19.124C3.37793 19.7926 3.53874 20.4062 3.86035 20.9648C4.19043 21.515 4.66862 21.9551 5.29492 22.2852C5.92122 22.6152 6.68294 22.7803 7.58008 22.7803H13.3945V25.3955H7.59277C6.17936 25.3955 4.95638 25.1162 3.92383 24.5576C2.89974 23.999 2.1084 23.25 1.5498 22.3105C0.999674 21.3711 0.724609 20.3258 0.724609 19.1748C0.724609 18.1507 0.915039 17.2155 1.2959 16.3691C1.67676 15.5228 2.21842 14.8203 2.9209 14.2617C3.63184 13.6947 4.46973 13.3307 5.43457 13.1699C5.46842 12.2643 5.69271 11.4561 6.10742 10.7451C6.52214 10.0257 7.05957 9.43327 7.71973 8.96777C8.37988 8.49382 9.09928 8.1722 9.87793 8.00293C10.6566 7.8252 11.4268 7.82943 12.1885 8.01562C12.7301 7.24544 13.3691 6.55566 14.1055 5.94629C14.8503 5.33691 15.6882 4.85872 16.6191 4.51172C17.5586 4.15625 18.5911 3.97852 19.7168 3.97852C21.0625 3.97852 22.3066 4.22396 23.4492 4.71484C24.6003 5.19727 25.6074 5.88281 26.4707 6.77148C27.334 7.66016 28.0026 8.70964 28.4766 9.91992C28.959 11.1217 29.2044 12.4421 29.2129 13.8809C30.474 14.3887 31.4642 15.1631 32.1836 16.2041C32.9115 17.2367 33.2754 18.43 33.2754 19.7842C33.2754 20.8675 33.013 21.8324 32.4883 22.6787C31.972 23.5166 31.2314 24.181 30.2666 24.6719C29.3018 25.1543 28.1549 25.3955 26.8262 25.3955H20.5293V22.7803ZM16.9619 31.7305C16.6234 31.7305 16.3314 31.6077 16.0859 31.3623C15.849 31.1253 15.7305 30.8503 15.7305 30.5371V18.8701L15.8701 16.623L15.0703 17.5625L13.3311 19.3145C13.0941 19.5514 12.819 19.6699 12.5059 19.6699C12.2096 19.6699 11.9557 19.5768 11.7441 19.3906C11.5326 19.196 11.4268 18.9421 11.4268 18.6289C11.4268 18.3242 11.5452 18.0661 11.7822 17.8545L16.0225 13.8555C16.1917 13.7116 16.3483 13.61 16.4922 13.5508C16.6445 13.4831 16.8011 13.4492 16.9619 13.4492C17.1227 13.4492 17.2751 13.4831 17.4189 13.5508C17.5713 13.61 17.7279 13.7116 17.8887 13.8555L22.1416 17.8545C22.3701 18.0661 22.4844 18.3242 22.4844 18.6289C22.4844 18.9421 22.3786 19.196 22.167 19.3906C21.9554 19.5768 21.7015 19.6699 21.4053 19.6699C21.1006 19.6699 20.8298 19.5514 20.5928 19.3145L18.8408 17.5625L18.0537 16.623L18.1807 18.8701V30.5371C18.1807 30.8503 18.0622 31.1253 17.8252 31.3623C17.5882 31.6077 17.3005 31.7305 16.9619 31.7305Z"
              fill="#E9CC27"/>
    </g>
    <defs>
        <clipPath id="clip0_587_2112">
            <rect width="35" height="35" fill="white"/>
        </clipPath>
    </defs>
</svg>
