<svg width="28" height="29" viewBox="0 0 28 29" fill="none" xmlns="http://www.w3.org/2000/svg">
    <path d="M14.6729 8.8623C15.3923 8.99772 16.0059 9.20085 16.5137 9.47168C17.0299 9.73405 17.4701 10.0514 17.834 10.4238C18.8919 11.4733 19.5944 12.6328 19.9414 13.9023C20.2884 15.1719 20.2842 16.4414 19.9287 17.7109C19.5817 18.972 18.8877 20.123 17.8467 21.1641L13.4033 25.6074C12.3708 26.6484 11.2197 27.3424 9.9502 27.6895C8.68913 28.0449 7.42383 28.0492 6.1543 27.7021C4.88477 27.3551 3.72103 26.6484 2.66309 25.582C1.60514 24.5326 0.898438 23.373 0.542969 22.1035C0.195964 20.834 0.195964 19.5687 0.542969 18.3076C0.898438 17.0381 1.60091 15.8828 2.65039 14.8418L6.26855 11.2363C6.1416 11.7526 6.10775 12.29 6.16699 12.8486C6.2347 13.4072 6.37435 13.9235 6.58594 14.3975L4.49121 16.4795C3.78874 17.1904 3.31901 17.9733 3.08203 18.8281C2.84505 19.6829 2.84505 20.5378 3.08203 21.3926C3.31901 22.2474 3.79297 23.0345 4.50391 23.7539C5.21484 24.4648 5.99772 24.9346 6.85254 25.1631C7.70736 25.4001 8.56217 25.4001 9.41699 25.1631C10.2718 24.9261 11.0547 24.4521 11.7656 23.7412L16.0059 19.5137C16.7083 18.8112 17.1738 18.0326 17.4023 17.1777C17.6393 16.3229 17.6393 15.4681 17.4023 14.6133C17.1654 13.7585 16.6914 12.9714 15.9805 12.252C15.5996 11.8711 15.1383 11.5622 14.5967 11.3252C14.055 11.0882 13.4118 10.9359 12.667 10.8682L14.6729 8.8623ZM13.3145 19.6279C12.6035 19.4925 11.9899 19.2894 11.4736 19.0186C10.9574 18.7477 10.5215 18.4303 10.166 18.0664C9.09961 17.0169 8.3929 15.8574 8.0459 14.5879C7.69889 13.3184 7.69889 12.0531 8.0459 10.792C8.40137 9.52246 9.10384 8.36296 10.1533 7.31348L14.5713 2.88281C15.6208 1.83333 16.776 1.13509 18.0371 0.788086C19.3066 0.432617 20.5719 0.432617 21.833 0.788086C23.1025 1.13509 24.2705 1.83757 25.3369 2.89551C26.3864 3.95345 27.0846 5.11719 27.4316 6.38672C27.7871 7.64779 27.7871 8.91309 27.4316 10.1826C27.0846 11.4521 26.3906 12.6074 25.3496 13.6484L21.7314 17.2539C21.8499 16.7376 21.8753 16.2002 21.8076 15.6416C21.7484 15.083 21.6172 14.5625 21.4141 14.0801L23.4961 11.998C24.207 11.2871 24.6768 10.5085 24.9053 9.66211C25.1423 8.80729 25.1423 7.95247 24.9053 7.09766C24.6683 6.23438 24.1943 5.44727 23.4834 4.73633C22.7725 4.02539 21.9896 3.55566 21.1348 3.32715C20.2799 3.09017 19.4251 3.09017 18.5703 3.32715C17.724 3.55566 16.9411 4.02539 16.2217 4.73633L11.9941 8.96387C11.2832 9.6748 10.8092 10.4577 10.5723 11.3125C10.3353 12.1589 10.3353 13.0137 10.5723 13.877C10.8092 14.7318 11.2874 15.5189 12.0068 16.2383C12.3877 16.6107 12.849 16.9154 13.3906 17.1523C13.9323 17.3893 14.5755 17.5417 15.3203 17.6094L13.3145 19.6279Z"
          fill="#E9CC27"/>
</svg>
