<svg width="42" height="42" viewBox="0 0 42 42" fill="none" xmlns="http://www.w3.org/2000/svg">
<rect width="42" height="42" rx="21" fill="#0500FF" fill-opacity="0.05"/>
<path fill-rule="evenodd" clip-rule="evenodd" d="M14.25 15.75C13.8358 15.75 13.5 16.0858 13.5 16.5V25.5C13.5 25.9142 13.8358 26.25 14.25 26.25H27.75C28.1642 26.25 28.5 25.9142 28.5 25.5V16.5C28.5 16.0858 28.1642 15.75 27.75 15.75H14.25ZM12 16.5C12 15.2574 13.0074 14.25 14.25 14.25H27.75C28.9926 14.25 30 15.2574 30 16.5V25.5C30 26.7426 28.9926 27.75 27.75 27.75H14.25C13.0074 27.75 12 26.7426 12 25.5V16.5Z" fill="#0500FF"/>
<path fill-rule="evenodd" clip-rule="evenodd" d="M12 19.5C12 19.0858 12.3358 18.75 12.75 18.75H29.25C29.6642 18.75 30 19.0858 30 19.5C30 19.9142 29.6642 20.25 29.25 20.25H12.75C12.3358 20.25 12 19.9142 12 19.5Z" fill="#0500FF"/>
</svg>
