<svg width="15" height="17" viewBox="0 0 15 17" fill="none" xmlns="http://www.w3.org/2000/svg">
<path fill-rule="evenodd" clip-rule="evenodd" d="M2.4375 7.21374V5.53012C2.4375 4.06344 2.97087 2.65683 3.92027 1.61973C4.86967 0.582636 6.15734 0 7.5 0C8.84266 0 10.1303 0.582636 11.0797 1.61973C12.0291 2.65683 12.5625 4.06344 12.5625 5.53012V7.21374C13.3988 7.28173 13.9425 7.45378 14.3407 7.88882C15 8.60814 15 9.76742 15 12.0843C15 14.4013 15 15.5605 14.3407 16.2799C13.6823 17 12.621 17 10.5 17H4.5C2.379 17 1.31775 17 0.65925 16.2799C-4.47035e-08 15.5605 0 14.4013 0 12.0843C0 9.76742 -4.47035e-08 8.60814 0.65925 7.88882C1.05675 7.45378 1.60125 7.28173 2.4375 7.21374ZM3.5625 5.53012C3.5625 4.38937 3.97734 3.29534 4.71577 2.48871C5.45419 1.68208 6.45571 1.22892 7.5 1.22892C8.54429 1.22892 9.54581 1.68208 10.2842 2.48871C11.0227 3.29534 11.4375 4.38937 11.4375 5.53012V7.17195C11.1503 7.16867 10.8383 7.16867 10.5 7.16867H4.5C4.161 7.16867 3.84975 7.16867 3.5625 7.17195V5.53012ZM4.5 12.9036C4.69891 12.9036 4.88968 12.8173 5.03033 12.6637C5.17098 12.51 5.25 12.3016 5.25 12.0843C5.25 11.8671 5.17098 11.6587 5.03033 11.505C4.88968 11.3514 4.69891 11.2651 4.5 11.2651C4.30109 11.2651 4.11032 11.3514 3.96967 11.505C3.82902 11.6587 3.75 11.8671 3.75 12.0843C3.75 12.3016 3.82902 12.51 3.96967 12.6637C4.11032 12.8173 4.30109 12.9036 4.5 12.9036ZM7.5 12.9036C7.69891 12.9036 7.88968 12.8173 8.03033 12.6637C8.17098 12.51 8.25 12.3016 8.25 12.0843C8.25 11.8671 8.17098 11.6587 8.03033 11.505C7.88968 11.3514 7.69891 11.2651 7.5 11.2651C7.30109 11.2651 7.11032 11.3514 6.96967 11.505C6.82902 11.6587 6.75 11.8671 6.75 12.0843C6.75 12.3016 6.82902 12.51 6.96967 12.6637C7.11032 12.8173 7.30109 12.9036 7.5 12.9036ZM11.25 12.0843C11.25 12.3016 11.171 12.51 11.0303 12.6637C10.8897 12.8173 10.6989 12.9036 10.5 12.9036C10.3011 12.9036 10.1103 12.8173 9.96967 12.6637C9.82902 12.51 9.75 12.3016 9.75 12.0843C9.75 11.8671 9.82902 11.6587 9.96967 11.505C10.1103 11.3514 10.3011 11.2651 10.5 11.2651C10.6989 11.2651 10.8897 11.3514 11.0303 11.505C11.171 11.6587 11.25 11.8671 11.25 12.0843Z" fill="none"/>
</svg>
