<svg width="16" height="17" viewBox="0 0 16 17" fill="none" xmlns="http://www.w3.org/2000/svg">

<path d="M11.334 2.50004C11.5091 2.32494 11.7169 2.18605 11.9457 2.09129C12.1745 1.99653 12.4197 1.94775 12.6673 1.94775C12.9149 1.94775 13.1601 1.99653 13.3889 2.09129C13.6177 2.18605 13.8256 2.32494 14.0007 2.50004C14.1757 2.67513 14.3146 2.883 14.4094 3.11178C14.5042 3.34055 14.5529 3.58575 14.5529 3.83337C14.5529 4.08099 14.5042 4.32619 14.4094 4.55497C14.3146 4.78374 14.1757 4.99161 14.0007 5.16671L5.00065 14.1667L1.33398 15.1667L2.33398 11.5L11.334 2.50004Z" stroke="white" stroke-width="1.5" stroke-linecap="round" stroke-linejoin="round"/>

</svg>
