<svg width="78" height="78" viewBox="0 0 78 78" fill="none" xmlns="http://www.w3.org/2000/svg">
<g clip-path="url(#clip0_0_57)">
<path fill-rule="evenodd" clip-rule="evenodd" d="M78 39C78 60.5391 60.5391 78 39 78C17.4609 78 0 60.5391 0 39C0 17.4609 17.4609 0 39 0C60.5391 0 78 17.4609 78 39ZM61.7251 39.7026C61.7251 51.8653 51.8653 61.7251 39.7026 61.7251C27.5398 61.7251 17.68 51.8653 17.68 39.7026C17.68 27.5398 27.5398 17.68 39.7026 17.68C51.8653 17.68 61.7251 27.5398 61.7251 39.7026Z" fill="#FFDA00"/>
<path d="M28.717 35.1203V35.2017C28.717 36.2642 28.9982 36.8091 29.576 36.8091C30.0685 36.8091 30.3651 36.4271 30.3651 35.7194C30.3651 35.2153 30.1674 34.7654 29.7873 34.2613C29.0544 33.3073 28.3079 32.5977 27.9143 31.9035C27.5614 31.2773 27.3927 30.7033 27.3927 30.1856C27.3927 28.714 28.2381 27.8279 29.5198 27.8279C30.8014 27.8279 31.6603 28.714 31.7166 30.2942L30.3496 30.4571C30.307 29.5438 30.0685 29.1076 29.5178 29.1076C29.1378 29.1076 28.8411 29.4624 28.8411 30.0208C28.8411 30.4707 29.0816 31.0562 29.5605 31.6437C30.2081 32.4212 30.7995 33.0882 31.2086 33.7029C31.6177 34.3156 31.8135 34.971 31.8135 35.7194C31.8135 37.1232 30.8848 38.0772 29.574 38.0772C28.2633 38.0772 27.3908 37.1096 27.2783 35.3239L28.7151 35.1203H28.717Z" fill="white"/>
<path d="M32.8431 28.0333H34.2372V37.8871H32.8431V28.0333Z" fill="white"/>
<path d="M38.3652 37.1524C37.9561 37.6972 37.45 37.9706 36.9149 37.9706C36.0133 37.9706 35.4219 37.3172 35.4219 36.2527C35.4219 34.7946 36.3662 33.8271 38.3381 32.9681V32.5726C38.3381 31.9191 38.1403 31.605 37.6478 31.605C37.1553 31.605 36.8722 31.987 36.8587 32.5726H35.5208C35.6061 31.2231 36.4495 30.4591 37.7894 30.4591C39.2261 30.4591 39.7477 31.2366 39.7477 32.9254V36.2915C39.7477 36.9313 39.7904 37.4645 39.8892 37.8853H38.5087L38.3672 37.1485L38.3652 37.1524ZM36.816 35.8979C36.816 36.4156 37.07 36.7297 37.45 36.7297C37.7603 36.7297 38.055 36.5261 38.3381 36.1441V34.114C37.3104 34.6046 36.816 35.163 36.816 35.8998V35.8979Z" fill="white"/>
<path d="M45.2815 35.7621C45.2815 37.2066 44.4787 38.0249 43.1409 38.0249C41.803 38.0249 41.0836 37.1659 41.0836 35.4209V33.0631C41.0836 31.3181 41.7603 30.4591 43.1409 30.4591C44.5214 30.4591 45.2815 31.2773 45.2815 32.7897V33.1174H43.93V32.6133C43.93 31.9327 43.7187 31.6186 43.2107 31.6186C42.7027 31.6186 42.4913 31.9327 42.4913 32.6133V35.8571C42.4913 36.5377 42.7027 36.8654 43.2107 36.8654C43.7187 36.8654 43.93 36.5377 43.93 35.8571V35.3394H45.2815V35.7621Z" fill="white"/>
<path d="M46.5476 28.0333H47.9553V33.2801L49.5898 30.5675H51.0964L49.4347 33.0203L51.1952 37.8871H49.8011L48.4633 33.92L47.9553 34.7382V37.8871H46.5476V28.0333Z" fill="white"/>
<path d="M30.21 47.0079C30.21 48.4524 29.4073 49.2706 28.0694 49.2706C26.7316 49.2706 26.0122 48.4117 26.0122 46.6666V44.3088C26.0122 42.5638 26.6889 41.7048 28.0694 41.7048C29.45 41.7048 30.21 42.5231 30.21 44.0355V44.3631H28.8586V43.859C28.8586 43.1784 28.6472 42.8643 28.1392 42.8643C27.6312 42.8643 27.4199 43.1784 27.4199 43.859V47.1029C27.4199 47.7854 27.6312 48.1111 28.1392 48.1111C28.6472 48.1111 28.8586 47.7834 28.8586 47.1029V46.5852H30.21V47.0079Z" fill="white"/>
<path d="M35.5479 49.133H34.2372V48.2333C33.7021 48.8732 33.1669 49.2009 32.6744 49.2009C31.6313 49.2009 31.3928 48.4912 31.3928 46.9924V41.8135H32.8005V47.0467C32.8005 47.6866 32.942 47.9735 33.3647 47.9735C33.6051 47.9735 33.8998 47.7971 34.1538 47.4558V41.8135H35.5479V49.133Z" fill="white"/>
<path d="M37.2794 42.9595H36.4631V41.8135H37.2794V39.8513H38.6871V41.8135H39.6876V42.9595H38.6871V46.9944C38.6871 47.7176 38.7433 48.0434 39.2649 48.0434C39.4065 48.0434 39.5461 48.0298 39.7167 48.0162V49.1195C39.4627 49.2009 39.2087 49.2416 38.9411 49.2416C37.5897 49.2416 37.2794 48.6154 37.2794 46.911V42.9575V42.9595Z" fill="white"/>
<path d="M40.9421 42.9595H40.1258V41.8135H40.9421V39.8513H42.3498V41.8135H43.3503V42.9595H42.3498V46.9944C42.3498 47.7176 42.406 48.0434 42.9276 48.0434C43.0691 48.0434 43.2087 48.0298 43.3793 48.0162V49.1195C43.1253 49.2009 42.8713 49.2416 42.6038 49.2416C41.2523 49.2416 40.9421 48.6154 40.9421 46.911V42.9575V42.9595Z" fill="white"/>
<path d="M48.4924 47.0079C48.4924 48.4524 47.6896 49.2706 46.3518 49.2706C45.0139 49.2706 44.2945 48.4117 44.2945 46.6666V44.3088C44.2945 42.5502 44.9577 41.7048 46.4351 41.7048C47.9126 41.7048 48.5757 42.6724 48.5757 44.621V45.7243H45.7022V47.1009C45.7022 47.7834 45.9136 48.1092 46.4216 48.1092C46.9296 48.1092 47.1409 47.7815 47.1409 47.1009V46.5832H48.4924V47.0059V47.0079ZM45.7042 44.5822H47.1409V43.859C47.1409 43.1784 46.9296 42.8643 46.4216 42.8643C45.9136 42.8643 45.7022 43.1784 45.7022 43.859V44.5822H45.7042Z" fill="white"/>
<path d="M49.8011 41.8134H51.1119V42.781C51.4919 42.0713 51.9708 41.7456 52.7464 41.7048V43.1765C52.5486 43.1222 52.3373 43.1086 52.1124 43.1086C51.3523 43.1086 51.2108 43.5178 51.2108 44.4174V49.1329H49.8031V41.8134H49.8011Z" fill="white"/>
</g>
<defs>
<clipPath id="clip0_0_57">
<rect width="78" height="78" fill="white"/>
</clipPath>
</defs>
</svg>
