<svg width="38" height="38" viewBox="0 0 38 38" fill="none" xmlns="http://www.w3.org/2000/svg">
    <rect width="38" height="38" rx="19" fill="white"/>
    <path d="M27.3399 14.5005C27.2123 14.5996 24.9593 15.8691 24.9593 18.692C24.9593 21.9571 27.8262 23.1122 27.912 23.1408C27.8988 23.2112 27.4565 24.7228 26.4004 26.2629C25.4587 27.6183 24.4752 28.9714 22.9791 28.9714C21.4829 28.9714 21.0979 28.1023 19.3707 28.1023C17.6876 28.1023 17.0891 29 15.7206 29C14.352 29 13.3971 27.7459 12.2992 26.2057C11.0275 24.3971 10 21.5875 10 18.9208C10 14.6436 12.7811 12.3751 15.5182 12.3751C16.9725 12.3751 18.1848 13.33 19.0979 13.33C19.967 13.33 21.3223 12.3179 22.9769 12.3179C23.604 12.3179 25.857 12.3751 27.3399 14.5005ZM22.1914 10.5072C22.8757 9.69527 23.3597 8.56876 23.3597 7.44224C23.3597 7.28603 23.3465 7.12761 23.3179 7C22.2046 7.0418 20.8801 7.74147 20.0814 8.66777C19.4543 9.38064 18.8691 10.5072 18.8691 11.6491C18.8691 11.8207 18.8977 11.9923 18.9109 12.0473C18.9813 12.0605 19.0957 12.0759 19.2101 12.0759C20.209 12.0759 21.4653 11.407 22.1914 10.5072Z"
          fill="black"/>
</svg>
