<svg width="29" height="30" viewBox="0 0 29 30" fill="none" xmlns="http://www.w3.org/2000/svg">
    <g clip-path="url(#clip0_587_2090)">
        <path d="M17.1409 15.95H16.6409V16.45V29H11.9889V16.45V15.95H11.4889H7.75V11.15H11.4889H11.9889V10.65V7.31528C11.9889 5.19693 12.5646 3.62945 13.5343 2.59494C14.5002 1.56449 15.9157 1 17.7272 1C18.6341 1 19.5367 1.03481 20.2109 1.07723C20.4763 1.09393 20.7034 1.11162 20.8798 1.12852V4.35H19.266C18.6877 4.35 18.2051 4.45234 17.8139 4.666C17.4153 4.88366 17.1463 5.19807 16.971 5.55912C16.6409 6.23925 16.6409 7.10825 16.6409 7.82454V7.82505V10.65V11.15H17.1409H21.1911L20.6555 15.95H17.1409Z"
              fill="#E9CC27" stroke="#3D3D54"/>
    </g>
    <defs>
        <clipPath id="clip0_587_2090">
            <rect width="29" height="29" fill="white" transform="translate(0 0.5)"/>
        </clipPath>
    </defs>
</svg>
