<svg width="38" height="38" viewBox="0 0 38 38" fill="none" xmlns="http://www.w3.org/2000/svg">
    <rect width="38" height="38" rx="19" fill="white"/>
    <path d="M28.8055 17.0415H28V17H19V21H24.6515C23.827 23.3285 21.6115 25 19 25C15.6865 25 13 22.3135 13 19C13 15.6865 15.6865 13 19 13C20.5295 13 21.921 13.577 22.9805 14.5195L25.809 11.691C24.023 10.0265 21.634 9 19 9C13.4775 9 9 13.4775 9 19C9 24.5225 13.4775 29 19 29C24.5225 29 29 24.5225 29 19C29 18.3295 28.931 17.675 28.8055 17.0415Z"
          fill="#FFC107"/>
    <path d="M10.1531 14.3455L13.4386 16.755C14.3276 14.554 16.4806 13 19.0001 13C20.5296 13 21.9211 13.577 22.9806 14.5195L25.8091 11.691C24.0231 10.0265 21.6341 9 19.0001 9C15.1591 9 11.8281 11.1685 10.1531 14.3455Z"
          fill="#FF3D00"/>
    <path d="M18.9999 28.9999C21.5829 28.9999 23.9299 28.0114 25.7044 26.4039L22.6094 23.7849C21.5717 24.574 20.3036 25.0009 18.9999 24.9999C16.3989 24.9999 14.1904 23.3414 13.3584 21.0269L10.0974 23.5394C11.7524 26.7779 15.1134 28.9999 18.9999 28.9999Z"
          fill="#4CAF50"/>
    <path d="M28.8055 17.0415H28V17H19V21H24.6515C24.2571 22.1082 23.5467 23.0766 22.608 23.7855L22.6095 23.7845L25.7045 26.4035C25.4855 26.6025 29 24 29 19C29 18.3295 28.931 17.675 28.8055 17.0415Z"
          fill="#1976D2"/>
</svg>
