<svg width="35" height="36" viewBox="0 0 35 36" fill="none" xmlns="http://www.w3.org/2000/svg">
    <g clip-path="url(#clip0_587_2077)">
        <path fill-rule="evenodd" clip-rule="evenodd"
              d="M11.511 3.67796C9.15057 3.78446 7.10468 4.36156 5.45267 6.00659C3.79488 7.66028 3.22496 9.71427 3.11819 12.0501C3.05182 13.5081 2.66372 24.5225 3.78911 27.4111C4.54803 29.3598 6.04274 30.8581 8.00928 31.6195C8.92691 31.9764 9.97441 32.218 11.511 32.2886C24.3592 32.87 29.1219 32.5535 31.1303 27.4111C31.4866 26.4957 31.7319 25.4491 31.7997 23.9164C32.3869 11.0352 31.7045 8.24316 29.4653 6.00659C27.6892 4.2349 25.6 3.02886 11.511 3.67796ZM11.6293 29.698C10.2225 29.6346 9.45931 29.4002 8.95 29.2031C7.66879 28.7051 6.70644 27.7467 6.21156 26.473C5.35454 24.2781 5.63878 13.8538 5.71525 12.167C5.79027 10.5147 6.125 9.00469 7.29079 7.83892C8.73359 6.39968 10.5977 5.69432 23.29 6.26714C24.9464 6.34198 26.4599 6.67602 27.6286 7.83892C29.0714 9.27815 29.787 11.1566 29.2041 23.8002C29.1406 25.2035 28.9055 25.9649 28.7078 26.473C27.4021 29.8192 24.3981 30.2837 11.6293 29.698ZM23.43 10.3C23.43 11.2527 24.2048 12.0275 25.1614 12.0275C26.118 12.0275 26.8942 11.2527 26.8942 10.3C26.8942 9.34719 26.118 8.57312 25.1614 8.57312C24.2048 8.57312 23.43 9.34719 23.43 10.3ZM10.0509 17.9825C10.0509 22.0642 13.3679 25.3734 17.4597 25.3734C21.5515 25.3734 24.8685 22.0642 24.8685 17.9825C24.8685 13.9009 21.5515 10.5938 17.4597 10.5938C13.3679 10.5938 10.0509 13.9009 10.0509 17.9825ZM12.6508 17.9825C12.6508 15.3344 14.8035 13.1858 17.4597 13.1858C20.1159 13.1858 22.2686 15.3344 22.2686 17.9825C22.2686 20.6322 20.1159 22.7814 17.4597 22.7814C14.8035 22.7814 12.6508 20.6322 12.6508 17.9825Z"
              fill="#E9CC27"/>
    </g>
    <defs>
        <clipPath id="clip0_587_2077">
            <rect width="29" height="29" fill="white" transform="translate(3 3.5)"/>
        </clipPath>
    </defs>
</svg>
