<svg width="35" height="36" viewBox="0 0 35 36" fill="none" xmlns="http://www.w3.org/2000/svg">
    <path d="M28.9673 16.6404V12.308C26.9384 12.308 25.39 11.7664 24.3908 10.7138C23.3652 9.51252 22.7907 7.9912 22.7661 6.41189V6.09916L18.6701 6V23.5967C18.5296 24.3645 18.1569 25.0706 17.6024 25.6199C17.0478 26.1691 16.3381 26.535 15.569 26.6681C14.8 26.8012 14.0086 26.6951 13.3017 26.3642C12.5948 26.0333 12.0065 25.4934 11.6161 24.8175C11.2258 24.1416 11.0522 23.3623 11.1188 22.5846C11.1855 21.8069 11.4891 21.0685 11.9887 20.4688C12.4884 19.8692 13.1599 19.4373 13.9128 19.2314C14.6657 19.0256 15.4636 19.0557 16.1988 19.3177V15.1225C15.7701 15.0523 15.3365 15.0166 14.9021 15.0157C13.3392 15.0157 11.8114 15.4792 10.5119 16.3475C9.21245 17.2158 8.19961 18.4499 7.60152 19.8939C7.00342 21.3378 6.84694 22.9266 7.15184 24.4595C7.45675 25.9924 8.20935 27.4004 9.31448 28.5055C10.4196 29.6106 11.8276 30.3633 13.3605 30.6682C14.8934 30.9731 16.4822 30.8166 17.9261 30.2185C19.3701 29.6204 20.6042 28.6076 21.4725 27.3081C22.3408 26.0086 22.8043 24.4808 22.8043 22.9179C22.8034 22.594 22.783 22.2706 22.7432 21.9492V14.97C24.6057 16.1331 26.7727 16.7147 28.9673 16.6404Z"
          fill="#E9CC27"/>
</svg>
