<svg width="31" height="29" viewBox="0 0 31 29" fill="none" xmlns="http://www.w3.org/2000/svg">
    <path fill-rule="evenodd" clip-rule="evenodd"
          d="M25.8712 6.05576C27.07 6.36209 28.0123 7.26138 28.3331 8.40573C28.9131 10.4778 28.9154 14.8036 28.9154 14.8036C28.9154 14.8036 28.9154 19.1294 28.3331 21.2015C28.0123 22.3458 27.07 23.2451 25.8712 23.5513C23.7005 24.1071 14.9921 24.1071 14.9921 24.1071C14.9921 24.1071 6.28377 24.1071 4.11298 23.5513C2.91413 23.2451 1.972 22.3458 1.65109 21.2015C1.06885 19.1294 1.06885 14.8036 1.06885 14.8036C1.06885 14.8036 1.06885 10.4778 1.65109 8.40573C1.972 7.26138 2.91413 6.36209 4.11298 6.05576C6.28377 5.5 14.9921 5.5 14.9921 5.5C14.9921 5.5 23.7005 5.5 25.8712 6.05576ZM19.4395 14.8035L12.205 18.7901V10.8169L19.4395 14.8035Z"
          fill="#E9CC27"/>
</svg>
