<svg width="48" height="48" viewBox="0 0 48 48" fill="none" xmlns="http://www.w3.org/2000/svg">
    <path d="M40.6876 34.3126H37.3923C37.1673 34.3126 36.9563 34.411 36.8157 34.5844C36.4876 34.9829 36.136 35.3673 35.7657 35.7329C34.2511 37.249 32.4571 38.4572 30.4829 39.2907C28.4375 40.1546 26.2391 40.5978 24.0188 40.5938C21.7735 40.5938 19.5985 40.1532 17.5548 39.2907C15.5805 38.4572 13.7865 37.249 12.2719 35.7329C10.7547 34.2219 9.54483 32.4311 8.70944 30.4594C7.84225 28.4157 7.40632 26.2454 7.40632 24.0001C7.40632 21.7548 7.84694 19.5844 8.70944 17.5407C9.54382 15.5673 10.7438 13.7907 12.2719 12.2673C13.8001 10.7438 15.5766 9.54382 17.5548 8.70945C19.5985 7.84695 21.7735 7.40632 24.0188 7.40632C26.2641 7.40632 28.4391 7.84226 30.4829 8.70945C32.461 9.54382 34.2376 10.7438 35.7657 12.2673C36.136 12.6376 36.4829 13.0219 36.8157 13.4157C36.9563 13.5891 37.1719 13.6876 37.3923 13.6876H40.6876C40.9829 13.6876 41.1657 13.3594 41.0016 13.111C37.4063 7.52351 31.1157 3.82507 23.9673 3.84382C12.736 3.87195 3.73132 12.9891 3.84382 24.2063C3.95632 35.2454 12.9469 44.1563 24.0188 44.1563C31.1485 44.1563 37.411 40.4626 41.0016 34.8891C41.161 34.6407 40.9829 34.3126 40.6876 34.3126ZM44.8548 23.7048L38.2032 18.4548C37.9548 18.2579 37.5938 18.436 37.5938 18.7501V22.3126H22.8751C22.6688 22.3126 22.5001 22.4813 22.5001 22.6876V25.3126C22.5001 25.5188 22.6688 25.6876 22.8751 25.6876H37.5938V29.2501C37.5938 29.5641 37.9594 29.7423 38.2032 29.5454L44.8548 24.2954C44.8996 24.2603 44.9358 24.2155 44.9608 24.1643C44.9857 24.1132 44.9986 24.057 44.9986 24.0001C44.9986 23.9432 44.9857 23.887 44.9608 23.8358C44.9358 23.7847 44.8996 23.7398 44.8548 23.7048Z"
          fill="black"/>
</svg>
