<svg width="24" height="25" viewBox="0 0 24 25" fill="none" xmlns="http://www.w3.org/2000/svg">
<g clip-path="url(#clip0_380_618)">
<path fill-rule="evenodd" clip-rule="evenodd" d="M12 2.5C8.68629 2.5 6 5.18629 6 8.5C6 11.8137 8.68629 14.5 12 14.5C15.3137 14.5 18 11.8137 18 8.5C18 5.18629 15.3137 2.5 12 2.5ZM4 8.5C4 4.08172 7.58172 0.5 12 0.5C16.4183 0.5 20 4.08172 20 8.5C20 12.9183 16.4183 16.5 12 16.5C7.58172 16.5 4 12.9183 4 8.5Z" fill="#212121"/>
<path fill-rule="evenodd" clip-rule="evenodd" d="M15.6585 13.3887C16.206 13.316 16.7087 13.701 16.7813 14.2485L17.9913 23.3685C18.0418 23.7491 17.8699 24.125 17.549 24.3358C17.2281 24.5466 16.8148 24.555 16.4855 24.3575L12 21.6662L7.51452 24.3575C7.18525 24.5551 6.77193 24.5466 6.45099 24.3358C6.13004 24.125 5.95817 23.749 6.00873 23.3683L7.21873 14.2583C7.29145 13.7109 7.79421 13.326 8.34169 13.3987C8.88917 13.4714 9.27403 13.9742 9.20132 14.5217L8.26447 21.5751L11.4855 19.6425C11.8022 19.4525 12.1978 19.4525 12.5145 19.6425L15.7359 21.5753L14.7987 14.5115C14.7261 13.964 15.111 13.4613 15.6585 13.3887Z" fill="#212121"/>
</g>
<defs>
<clipPath id="clip0_380_618">
<rect width="24" height="24" fill="white" transform="translate(0 0.5)"/>
</clipPath>
</defs>
</svg>
