<svg width="35" height="23" viewBox="0 0 35 23" fill="none" xmlns="http://www.w3.org/2000/svg">
<path fill-rule="evenodd" clip-rule="evenodd" d="M0.5 11.4432C0.5 14.4126 1.76911 17.5252 3.80594 19.5198C7.79212 23.4241 13.5984 24.1177 18.4019 21.2231C18.8289 20.9665 19.5209 20.4559 19.8565 20.1284C22.7289 17.3176 22.238 16.5878 22.238 12.5572V7.69628C22.238 6.14387 22.7446 5.21422 23.4522 4.33875C24.3519 3.22729 25.728 2.83662 27.2635 2.83662C30.9938 2.83662 33.3425 7.69756 30.3684 10.7637C29.3212 11.8429 27.5116 12.4321 25.8703 12.0079C25.3389 11.87 25.3376 11.7475 24.6992 11.7475C23.4013 11.7475 22.6545 13.8311 24.4028 14.4694C27.1368 15.4673 29.7965 14.7698 31.9651 13.0485C36.8418 9.17906 34.4186 0 26.9553 0C25.698 0 24.267 0.417758 23.4353 0.878062C21.5499 1.92246 20.1045 3.65022 19.6332 5.83184C19.346 7.1599 19.4687 12.6165 19.47 14.3791C19.4713 16.4937 19.026 17.5406 17.2569 18.674C13.7681 20.9085 9.04035 20.7718 6.11436 17.8475C5.41191 17.1461 4.70945 16.3454 4.25771 15.4286C2.82669 12.5224 3.10219 9.09267 4.96929 6.43913C5.16906 6.15417 5.24218 6.12711 5.43672 5.88857C5.63517 5.64617 5.66911 5.57783 5.90806 5.3406C7.05965 4.19562 9.31845 2.83662 11.5746 2.83662C12.7941 2.83662 13.272 2.78247 14.4902 3.09708C15.4028 3.33303 15.2827 3.54576 16.3938 3.54576C17.3326 3.54576 17.5219 2.62903 17.5219 1.92632C17.5219 0.549273 13.8321 0.00257875 12.1896 0.00257875C10.2194 0.00257875 8.83798 0.455149 7.45656 0.999263C6.76459 1.27261 6.19139 1.61816 5.60515 2.00627C5.29701 2.20999 5.07506 2.39308 4.79173 2.6213C4.62849 2.75281 4.57759 2.8263 4.42091 2.96427C3.49911 3.77528 2.71441 4.63271 2.10597 5.74029C1.89314 6.12839 1.75344 6.28697 1.56934 6.72923C0.983095 8.13465 0.501306 9.50267 0.501306 11.4458L0.5 11.4432Z" fill="white"/>
</svg>
