<svg width="23" height="23" viewBox="0 0 23 23" fill="none" xmlns="http://www.w3.org/2000/svg">
<g clip-path="url(#clip0_380_3758)">
<path d="M3.06689 5.26672L6.91689 7.83339L10.7541 2.46172C10.8388 2.34289 10.9508 2.24604 11.0806 2.17921C11.2104 2.11238 11.3542 2.07751 11.5002 2.07751C11.6462 2.07751 11.7901 2.11238 11.9199 2.17921C12.0496 2.24604 12.1616 2.34289 12.2464 2.46172L16.0836 7.83339L19.9336 5.26672C20.0793 5.16978 20.2497 5.11658 20.4247 5.1134C20.5996 5.11022 20.7719 5.15719 20.921 5.24877C21.0701 5.34036 21.1899 5.47272 21.2662 5.63021C21.3426 5.78771 21.3722 5.96376 21.3516 6.13756L19.8456 18.9406C19.8193 19.1636 19.7121 19.3692 19.5443 19.5184C19.3765 19.6676 19.1598 19.75 18.9353 19.7501H4.06514C3.84061 19.75 3.62391 19.6676 3.45613 19.5184C3.28835 19.3692 3.18116 19.1636 3.15489 18.9406L1.6488 6.13664C1.62845 5.96291 1.65823 5.78699 1.73462 5.62965C1.81101 5.4723 1.93083 5.34009 2.07992 5.24863C2.22902 5.15717 2.40117 5.11027 2.57605 5.11348C2.75093 5.11668 2.92125 5.16986 3.06689 5.26672Z" fill="#FEC600"/>
</g>
<defs>
<clipPath id="clip0_380_3758">
<rect width="22" height="22" fill="white" transform="translate(0.5 0.5)"/>
</clipPath>
</defs>
</svg>
