<svg width="29" height="28" viewBox="0 0 29 28" fill="none" xmlns="http://www.w3.org/2000/svg">
<path d="M28.2843 12.74H15.0968V16.562H24.4589C23.9843 21.896 19.4255 24.178 15.1112 24.178C9.60324 24.178 4.77119 19.95 4.77119 14C4.77119 8.26 9.37314 3.822 15.1256 3.822C19.5693 3.822 22.1723 6.58 22.1723 6.58L24.9047 3.808C24.9047 3.808 21.3957 0 14.9818 0C6.8133 0 0.5 6.72 0.5 14C0.5 21.07 6.43939 28 15.1975 28C22.8914 28 28.5 22.862 28.5 15.274C28.5 13.664 28.2843 12.74 28.2843 12.74Z" fill="#D9D9D9"/>
</svg>
