<svg width="16" height="16" viewBox="0 0 16 16" fill="none" xmlns="http://www.w3.org/2000/svg">

<path fill-rule="evenodd" clip-rule="evenodd" d="M8.5169 1.83382C9.27131 1.10518 10.2817 0.702006 11.3305 0.711119C12.3793 0.720233 13.3825 1.14091 14.1242 1.88254C14.8658 2.62417 15.2865 3.62742 15.2956 4.67621C15.3047 5.725 14.9015 6.73541 14.1729 7.48982L14.1648 7.49808L12.1649 9.49799C11.7594 9.90365 11.2713 10.2174 10.7339 10.4178C10.1965 10.6183 9.6223 10.7008 9.05018 10.6599C8.47807 10.6189 7.92146 10.4554 7.4181 10.1803C6.91475 9.90534 6.47643 9.5253 6.13286 9.06599C5.91233 8.77116 5.97255 8.35337 6.26739 8.13283C6.56222 7.91229 6.98001 7.97252 7.20055 8.26735C7.42959 8.57356 7.72181 8.82692 8.05738 9.01026C8.39295 9.19359 8.76402 9.30262 9.14543 9.32993C9.52684 9.35725 9.90966 9.30222 10.2679 9.16857C10.6262 9.03493 10.9515 8.82579 11.2219 8.55536L11.222 8.55527L13.2176 6.55959C13.701 6.05708 13.9684 5.38516 13.9623 4.6878C13.9562 3.98861 13.6758 3.31977 13.1814 2.82535C12.6869 2.33093 12.0181 2.05048 11.3189 2.0444C10.6212 2.03834 9.94905 2.30594 9.44647 2.7897L8.3034 3.92612C8.04229 4.18571 7.62019 4.18448 7.3606 3.92337C7.10101 3.66226 7.10224 3.24015 7.36335 2.98056L8.51001 1.84056L8.5169 1.83382Z" fill="#212121"/>
<path fill-rule="evenodd" clip-rule="evenodd" d="M5.26688 5.58219C5.80429 5.38172 6.37853 5.29917 6.95064 5.34014C7.52275 5.38112 8.07937 5.54465 8.58272 5.81966C9.08607 6.09467 9.5244 6.47471 9.86796 6.93401C10.0885 7.22885 10.0283 7.64664 9.73344 7.86717C9.4386 8.08771 9.02081 8.02748 8.80027 7.73265C8.57123 7.42645 8.27902 7.17309 7.94345 6.98975C7.60788 6.80641 7.2368 6.69739 6.85539 6.67007C6.47398 6.64276 6.09116 6.69779 5.73289 6.83143C5.37462 6.96508 5.04928 7.17421 4.77894 7.44465L2.78318 9.44041C2.29982 9.94293 2.03245 10.6148 2.03851 11.3122C2.04459 12.0114 2.32504 12.6802 2.81946 13.1747C3.31388 13.6691 3.98272 13.9495 4.68191 13.9556C5.37927 13.9617 6.05118 13.6943 6.55369 13.2109L7.68938 12.0753C7.94973 11.8149 8.37184 11.8149 8.63219 12.0753C8.89254 12.3356 8.89254 12.7577 8.63219 13.0181L7.49219 14.1581L7.48392 14.1662C6.72952 14.8948 5.71911 15.298 4.67032 15.2889C3.62153 15.2798 2.61828 14.8591 1.87665 14.1175C1.13502 13.3758 0.714343 12.3726 0.705229 11.3238C0.696116 10.275 1.09929 9.2646 1.82793 8.51019L1.83605 8.50193L3.83596 6.50201C3.83593 6.50204 3.83599 6.50198 3.83596 6.50201C4.24145 6.0964 4.72952 5.78264 5.26688 5.58219Z" fill="#212121"/>

<defs>
<clipPath id="clip0_572_745">
<rect width="16" height="16" fill="white"/>
</clipPath>
</defs>
</svg>
