<svg width="40" height="40" viewBox="0 0 40 40" fill="none" xmlns="http://www.w3.org/2000/svg">
<path fill-rule="evenodd" clip-rule="evenodd" d="M6.66753 8.1885C6.18707 8.1885 5.72628 8.37936 5.38654 8.7191C5.0468 9.05884 4.85594 9.51963 4.85594 10.0001V14.8552H1.81246V10.0001C1.81246 8.71245 2.32397 7.47754 3.23448 6.56704C4.14498 5.65653 5.37989 5.14502 6.66753 5.14502H33.3342C34.6218 5.14502 35.8567 5.65653 36.7673 6.56704C37.6778 7.47754 38.1893 8.71245 38.1893 10.0001V30.0001C38.1893 31.2877 37.6778 32.5226 36.7673 33.4331C35.8567 34.3436 34.6218 34.8552 33.3342 34.8552H21.8125V31.8117H33.3342C33.8147 31.8117 34.2754 31.6208 34.6152 31.2811C34.9549 30.9413 35.1458 30.4806 35.1458 30.0001V10.0001C35.1458 9.51963 34.9549 9.05884 34.6152 8.7191C34.2754 8.37936 33.8147 8.1885 33.3342 8.1885H6.66753ZM1.99 18.4028L3.50241 18.571C7.23043 18.9856 10.7064 20.6565 13.3588 23.3089C16.0111 25.9612 17.682 29.4372 18.0966 33.1652L18.2648 34.6776L15.24 35.014L15.0718 33.5016C14.7335 30.4604 13.3705 27.6247 11.2067 25.4609C9.04292 23.2972 6.20727 21.9341 3.16599 21.5958L1.65357 21.4276L1.99 18.4028ZM2.14724 25.0383L3.63829 25.3424C5.53222 25.7286 7.27075 26.6633 8.63753 28.0301C10.0043 29.3969 10.939 31.1354 11.3252 33.0293L11.6293 34.5204L8.64724 35.1286L8.34315 33.6375C8.07618 32.3285 7.43016 31.1268 6.48547 30.1822C5.54078 29.2375 4.33915 28.5914 3.03011 28.3245L1.53906 28.0204L2.14724 25.0383Z" fill="#212121"/>
<path fill-rule="evenodd" clip-rule="evenodd" d="M1.8125 33.3333C1.8125 32.4928 2.49381 31.8115 3.33424 31.8115H3.35018C4.19061 31.8115 4.87192 32.4928 4.87192 33.3333C4.87192 34.1737 4.19061 34.855 3.35018 34.855H3.33424C2.49381 34.855 1.8125 34.1737 1.8125 33.3333Z" fill="#212121"/>
</svg>
