<svg width="16" height="15" viewBox="0 0 16 15" fill="none" xmlns="http://www.w3.org/2000/svg">
<path d="M7.08663 1.04906C7.43899 0.258573 8.56101 0.25857 8.91337 1.04906L10.2515 4.05105C10.3968 4.37709 10.7049 4.60093 11.0599 4.6384L14.3285 4.98338C15.1892 5.07422 15.5359 6.14132 14.893 6.72071L12.4514 8.92102C12.1863 9.15999 12.0686 9.52217 12.1426 9.87136L12.8246 13.0866C13.0042 13.9332 12.0964 14.5927 11.3467 14.1603L8.49962 12.5182C8.19041 12.3398 7.80959 12.3398 7.50038 12.5182L4.65327 14.1603C3.90357 14.5927 2.99584 13.9332 3.17541 13.0866L3.85736 9.87136C3.93142 9.52217 3.81374 9.15999 3.54857 8.92102L1.10702 6.72071C0.464104 6.14132 0.810824 5.07422 1.67151 4.98338L4.94008 4.6384C5.29507 4.60093 5.60316 4.37709 5.74849 4.05105L7.08663 1.04906Z" fill="#D9D9D9"/>
</svg>
