<svg width="24" height="32" viewBox="0 0 24 32" fill="none" xmlns="http://www.w3.org/2000/svg">
<path d="M21.4125 9.41255C22.1938 8.6313 22.1938 7.36255 21.4125 6.5813C20.6313 5.80005 19.3625 5.80005 18.5813 6.5813L12 13.1688L5.41255 6.58755C4.6313 5.8063 3.36255 5.8063 2.5813 6.58755C1.80005 7.3688 1.80005 8.63755 2.5813 9.4188L9.1688 16L2.58755 22.5875C1.8063 23.3688 1.8063 24.6376 2.58755 25.4188C3.3688 26.2001 4.63755 26.2001 5.4188 25.4188L12 18.8313L18.5875 25.4125C19.3688 26.1938 20.6376 26.1938 21.4188 25.4125C22.2001 24.6313 22.2001 23.3625 21.4188 22.5813L14.8313 16L21.4125 9.41255Z" fill="black"/>
</svg>
